<?xml version="1.0" encoding="utf-8"?>
<!-- Generator: Adobe Illustrator 20.0.0, SVG Export Plug-In . SVG Version: 6.00 Build 0)  -->
<!DOCTYPE svg PUBLIC "-//W3C//DTD SVG 1.1//EN" "http://www.w3.org/Graphics/SVG/1.1/DTD/svg11.dtd">
<svg version="1.1" id="Layer_1" xmlns="http://www.w3.org/2000/svg" xmlns:xlink="http://www.w3.org/1999/xlink" x="0px" y="0px"
	 viewBox="0 0 34.3 58.8" style="enable-background:new 0 0 34.3 58.8;" xml:space="preserve">
<style type="text/css">
	.st0{fill:#FFFFFF;}
</style>
<g>
	<path class="st0" d="M18.8,0h-3.3C6.8,0.8,0,8.2,0,17.1v24.6c0,9.5,7.7,17.1,17.1,17.1c9.5,0,17.1-7.7,17.1-17.1V17.1
		C34.3,8.1,27.5,0.8,18.8,0z M31.1,41.6c0,7.7-6.2,13.9-13.9,13.9S3.3,49.3,3.3,41.6V17.1c0-7.7,6.2-13.9,13.9-13.9
		s13.9,6.2,13.9,13.9C31.1,17.1,31.1,41.6,31.1,41.6z"/>
</g>
</svg>
